# AST/ASF file generated using VICON BodyLanguage
# -----------------------------------------------
:version 1.10
:name VICON
:units
  mass 1.0
  length 0.45
  angle deg
:documentation
   .ast/.asf automatically generated from VICON data using
   VICON BodyBuilder and BodyLanguage model FoxedUp or BRILLIANT.MOD
:root
   order TX TY TZ RX RY RZ
   axis XYZ
   position 0 0 0  
   orientation 0 0 0 
:bonedata
  begin
     id 1 
     name lhipjoint
     direction 0.606768 -0.715223 0.346827 
     length 2.41543 
     axis 0 0 0  XYZ
  end
  begin
     id 2 
     name lfemur
     direction 0.34202 -0.939693 0  
     length 7.2778  
     axis 0 0 20  XYZ
    dof rx ry rz
    limits (-160.0 20.0)
           (-70.0 70.0)
           (-60.0 70.0)
  end
  begin
     id 3 
     name ltibia
     direction 0.34202 -0.939693 0   
     length 7.61811   
     axis 0 0 20   XYZ
    dof rx
    limits (-10.0 170.0)
  end
  begin
     id 4 
     name lfoot
     direction 0.0823924 -0.226371 0.97055   
     length 2.33618   
     axis -90 7.62852e-016 20   XYZ
    dof rx rz
    limits (-45.0 90.0)
           (-70.0 20.0)
  end
  begin
     id 5 
     name ltoes
     direction 1.53554e-011 -4.21934e-011 1   
     length 1.17015   
     axis -90 7.62852e-016 20   XYZ
    dof rx
    limits (-90.0 20.0)
  end
  begin
     id 6 
     name rhipjoint
     direction -0.6077 -0.714582 0.346516   
     length 2.4176  
     axis 0 0 0  XYZ 
  end
  begin
     id 7 
     name rfemur
     direction -0.34202 -0.939693 0   
     length 7.28127   
     axis 0 0 -20   XYZ
    dof rx ry rz
    limits (-160.0 20.0)
           (-70.0 70.0)
           (-70.0 60.0)
  end
  begin
     id 8 
     name rtibia
     direction -0.34202 -0.939693 0   
     length 7.77648   
     axis 0 0 -20   XYZ
    dof rx
    limits (-10.0 170.0)
 end
 begin
     id 9 
     name rfoot
     direction -0.0809463 -0.222398 0.97159   
     length 2.37533  
     axis -90 -7.62852e-016 -20   XYZ
    dof rx rz
    limits (-45.0 90.0)
           (-20.0 70.0)
  end
  begin
     id 10 
     name rtoes
     direction -1.53568e-011 -4.21714e-011 1   
     length 1.18972   
     axis -90 -7.62852e-016 -20   XYZ
    dof rx
    limits (-90.0 20.0)
  end
  begin
     id 11 
     name lowerback
     direction 0.010968 0.991932 -0.126297   
     length 2.21698   
     axis 0 0 0   XYZ
    dof rx ry rz
    limits (-20.0 45.0)
           (-30.0 30.0)
           (-30.0 30.0)
  end
  begin
     id 12 
     name upperback
     direction 0.0167007 0.997503 -0.0686276   
     length 2.22371   
     axis 0 0 0   XYZ
    dof rx ry rz
    limits (-20.0 45.0)
           (-30.0 30.0)
           (-30.0 30.0)
  end
  begin
     id 13 
     name thorax
     direction 0.0111721 0.999885 -0.0102878   
     length 2.25242   
     axis 0 0 0   XYZ
    dof rx ry rz
    limits (-20.0 45.0)
           (-30.0 30.0)
           (-30.0 30.0)
  end
  begin
     id 14 
     name lowerneck
     direction -0.0120265 0.990428 0.137508   
     length 1.57674   
     axis 0 0 0   XYZ
    dof rx ry rz
    limits (-20.0 45.0)
           (-30.0 30.0)
           (-30.0 30.0)
  end
  begin
     id 15 
     name upperneck
     direction 0.0175669 0.998907 0.0433089   
     length 1.5618   
     axis 0 0 0   XYZ
    dof rx ry rz
    limits (-20.0 45.0)
           (-30.0 30.0)
           (-30.0 30.0)
  end
  begin
     id 16
     name head
     direction 0.00754609 0.99997 0.00185367  
     length 1.60579  
     axis 0 0 0   XYZ
    dof rx ry rz
    limits (-20.0 45.0)
           (-30.0 30.0)
           (-30.0 30.0)
  end
  begin
     id 17 
     name lclavicle
     direction 0.885866 0.429166 -0.176231  
     length 3.44967  
     axis 0 0 0   XYZ
    dof ry rz
    limits (-20.0 10.0)
           (0.0 20.0)
  end
  begin
     id 18 
     name lhumerus
     direction 1 -4.48973e-011 -1.90255e-027   
     length 5.20607   
     axis 180 -30 -90   XYZ
    dof rx ry rz
    limits (-60.0 90.0)
           (-90.0 90.0)
           (-90.0 90.0)
  end
  begin
     id 19
     name lradius
     direction 1 -4.48956e-011 9.87925e-027   
     length 3.39961   
     axis 180 -30 -90   XYZ
    dof rx
    limits (-10.0 170.0)
  end
  begin
     id 20
     name lwrist
     direction 1 -4.48985e-011 1.73247e-026   
     length 1.6998   
     axis -9.60847e-015 90 90   XYZ
    dof ry
    limits (-180.0 0.0)
 end
  begin
     id 21 
     name lhand
     direction 1 -4.48798e-011 3.46119e-026   
     length 0.519693   
     axis -2.21073e-014 90 90   XYZ
    dof rx rz
    limits (-90.0 90.0)
           (-45.0 45.0)
  end
  begin
     id 22 
     name lfingers
     direction 1 -4.48938e-011 6.92797e-026   
     length 0.41899   
     axis -4.42155e-014 90 90   XYZ
    dof rx
    limits (0.0 90.0)
  end
  begin
     id 23
     name lthumb
     direction 0.707107 -6.34952e-011 0.707107   
     length 0.601588   
     axis -90 45 6.0103e-014   XYZ
    dof rx rz
    limits (-45.0 45.0)
           (-45.0 45.0)
  end
  begin
     id 24 
     name rclavicle
     direction -0.866736 0.456792 -0.200276   
     length 3.45032  
     axis 0 0 0   XYZ 
    dof ry rz
    limits (-10.0 20.0)
           (-20.0 0.0)
  end
  begin
     id 25 
     name rhumerus
     direction -1 -4.4897e-011 8.65094e-028  
     length 5.32214   
     axis 180 30 90   XYZ
    dof rx ry rz
    limits (-90.0 60.0)
           (-90.0 90.0)
           (-90.0 90.0)
  end
  begin
     id 26 
     name rradius
     direction -1 -4.48987e-011 1.08427e-026   
     length 3.51208   
     axis 180 30 90   XYZ
    dof rx
    limits (-10.0 170.0)
  end
  begin
     id 27 
     name rwrist
     direction -1 -4.48961e-011 1.73222e-026   
     length 1.75604   
     axis -9.60847e-015 -90 -90   XYZ
    dof ry
    limits (-180.0 0.0)
  end
  begin
     id 28
     name rhand
     direction -1 -4.48895e-011 3.46314e-026   
     length 0.586681   
     axis -2.21073e-014 -90 -90   XYZ
    dof rx rz
    limits (-90.0 90.0)
           (-45.0 45.0)
  end
  begin
     id 29
     name rfingers
     direction -1 -4.48968e-011 6.92916e-026   
     length 0.472997   
     axis -4.42155e-014 -90 -90   XYZ
    dof rx
    limits (0.0 90.0)
  end
  begin
     id 30
     name rthumb
     direction -0.707107 -6.34848e-011 0.707107   
     length 0.679133   
     axis -90 -45 -6.0103e-014   XYZ
    dof rx rz
    limits (-45.0 45.0)
           (-45.0 45.0)
  end
:hierarchy
  begin
    root lhipjoint rhipjoint lowerback
    lhipjoint lfemur
    lfemur ltibia
    ltibia lfoot
    lfoot ltoes
    rhipjoint rfemur
    rfemur rtibia
    rtibia rfoot
    rfoot rtoes
    lowerback upperback
    upperback thorax
    thorax lowerneck lclavicle rclavicle
    lowerneck upperneck
    upperneck head
    lclavicle lhumerus
    lhumerus lradius
    lradius lwrist
    lwrist lhand lthumb
    lhand lfingers
    rclavicle rhumerus
    rhumerus rradius
    rradius rwrist
    rwrist rhand rthumb
    rhand rfingers
  end

#!OML:ASF H:\Dans Jumps\Project 1\Capture day 1\Session 1\subject.ASF
:FULLY-SPECIFIED
:DEGREES
44
root 0.386974 17.6072 -13.954 6.01531 -0.652811 -1.29421
lowerback -2.91174 -0.678987 0.397183
upperback 3.44139 -1.00865 1.68377
thorax 5.21621 -0.52092 1.44649
lowerneck -12.3035 0.856491 -1.78241
upperneck 34.9019 1.93134 -0.531788
head 13.9064 0.524771 0.392857
rclavicle 4.96962e-017 -1.39149e-014
rhumerus -23.4266 -13.5154 -83.2114
rradius 24.1564
rwrist 31.5271
rhand -20.0682 -26.9672
rfingers 7.12502
rthumb 6.27399 -56.8543
lclavicle 4.96962e-017 -1.39149e-014
lhumerus -19.6017 -6.79586 91.8025
lradius 19.6627
lwrist 3.79407
lhand -26.2072 -3.83857
lfingers 7.12502
lthumb 0.34563 26.1409
rfemur -12.5813 -3.73542 19.9186
rtibia 20.629
rfoot -12.9335 -0.769481
rtoes 17.9007
lfemur -10.9884 6.55632 -18.0383
ltibia 17.6578
lfoot -10.8718 3.75174
ltoes 2.99726
45
root 0.386692 17.6072 -13.9551 6.01095 -0.642374 -1.29703
lowerback -2.91107 -0.677965 0.405266
upperback 3.44995 -1.00806 1.688
thorax 5.22475 -0.520443 1.44638
lowerneck -12.2962 0.85548 -1.78275
upperneck 34.906 1.92893 -0.529063
head 13.9065 0.524104 0.393624
rclavicle -1.39149e-015 8.34896e-015
rhumerus -23.4214 -13.5427 -83.2004
rradius 24.1482
rwrist 31.5451
rhand -20.0659 -26.9689
rfingers 7.12502
rthumb 6.27624 -56.8559
lclavicle -1.39149e-015 8.34896e-015
lhumerus -19.6001 -6.73795 91.7792
lradius 19.6376
lwrist 3.74819
lhand -26.1706 -3.7778
lfingers 7.12502
lthumb 0.380968 26.2016
rfemur -12.5788 -3.73374 19.9228
rtibia 20.6294
rfoot -12.934 -0.782026
rtoes 17.9082
lfemur -10.9923 6.55642 -18.034
ltibia 17.6633
lfoot -10.8718 3.74216
ltoes 2.99392
46
root 0.386409 17.6072 -13.956 6.00726 -0.630324 -1.29826
lowerback -2.91053 -0.677223 0.41154
upperback 3.45786 -1.00773 1.69207
thorax 5.23269 -0.520156 1.4471
lowerneck -12.2896 0.852967 -1.78391
upperneck 34.9108 1.92439 -0.525862
head 13.9072 0.522459 0.394413
rclavicle 7.35503e-015 -1.63003e-014
rhumerus -23.4183 -13.5752 -83.1869
rradius 24.1388
rwrist 31.5694
rhand -20.0641 -26.9698
rfingers 7.12502
rthumb 6.27793 -56.8568
lclavicle 7.35503e-015 -1.63003e-014
lhumerus -19.5994 -6.68444 91.7596
lradius 19.6099
lwrist 3.70267
lhand -26.1453 -3.74508
lfingers 7.12502
lthumb 0.405431 26.2343
rfemur -12.5765 -3.73501 19.9254
rtibia 20.6303
rfoot -12.9372 -0.792385
rtoes 17.925
lfemur -10.996 6.55448 -18.0313
ltibia 17.6681
lfoot -10.8715 3.73202
ltoes 2.99489
47
root 0.386134 17.6072 -13.9569 6.00404 -0.617619 -1.29592
lowerback -2.91036 -0.677229 0.413619
upperback 3.46458 -1.00816 1.69605
thorax 5.2397 -0.520399 1.45002
lowerneck -12.2825 0.850066 -1.78668
upperneck 34.9183 1.91964 -0.522327
head 13.9089 0.520513 0.395598
rclavicle -6.60959e-015 -1.19271e-015
rhumerus -23.4188 -13.605 -83.1718
rradius 24.1292
rwrist 31.5901
rhand -20.0653 -26.9705
rfingers 7.12502
rthumb 6.27679 -56.8575
lclavicle -6.60959e-015 -1.19271e-015
lhumerus -19.6031 -6.62957 91.7439
lradius 19.583
lwrist 3.65361
lhand -26.1284 -3.74401
lfingers 7.12502
lthumb 0.421774 26.2353
rfemur -12.575 -3.73909 19.9241
rtibia 20.6323
rfoot -12.9425 -0.801504
rtoes 17.9419
lfemur -10.9992 6.55111 -18.0326
ltibia 17.6722
lfoot -10.8712 3.72201
ltoes 3.00146
48
root 0.385799 17.6072 -13.9578 6.00202 -0.602957 -1.29334
lowerback -2.90996 -0.677438 0.414699
upperback 3.47122 -1.00881 1.70016
thorax 5.24651 -0.520791 1.45363
lowerneck -12.2758 0.845895 -1.79007
upperneck 34.9255 1.91223 -0.516123
head 13.9106 0.517699 0.397563
rclavicle -3.08116e-015 7.95139e-016
rhumerus -23.4195 -13.6401 -83.1553
rradius 24.1185
rwrist 31.6146
rhand -20.0642 -26.9728
rfingers 7.12502
rthumb 6.27779 -56.8597
lclavicle -3.08116e-015 7.95139e-016
lhumerus -19.6073 -6.58195 91.7325
lradius 19.5572
lwrist 3.60909
lhand -26.1236 -3.77161
lfingers 7.12502
lthumb 0.426369 26.2077
rfemur -12.5754 -3.7435 19.9231
rtibia 20.6353
rfoot -12.9479 -0.812381
rtoes 17.9589
lfemur -11.004 6.54605 -18.034
ltibia 17.6759
lfoot -10.8701 3.71065
ltoes 3.00986
49
root 0.38547 17.6072 -13.9588 5.99962 -0.587455 -1.28943
lowerback -2.90792 -0.678137 0.414187
upperback 3.4774 -1.00997 1.70403
thorax 5.25194 -0.521498 1.45786
lowerneck -12.2649 0.841661 -1.79562
upperneck 34.9313 1.90355 -0.505405
head 13.9106 0.514694 0.401492
rclavicle 8.94531e-015 1.98785e-015
rhumerus -23.4211 -13.6771 -83.1381
rradius 24.1062
rwrist 31.64
rhand -20.0598 -26.9805
rfingers 7.12502
rthumb 6.28204 -56.8673
lclavicle 8.94531e-015 1.98785e-015
lhumerus -19.6138 -6.53537 91.7239
lradius 19.5332
lwrist 3.56356
lhand -26.1272 -3.82116
lfingers 7.12502
lthumb 0.422852 26.1582
rfemur -12.5765 -3.74982 19.9208
rtibia 20.6398
rfoot -12.9535 -0.822704
rtoes 17.9618
lfemur -11.0084 6.5396 -18.0369
ltibia 17.6792
lfoot -10.8683 3.69889
ltoes 3.0242
